<svg xmlns="http://www.w3.org/2000/svg" width="882" height="731" fill="none" viewBox="0 0 882 731">
    <path fill="#FED8CF" d="M257.91 722.893C-14.888 696.733-66.58 442.974 80.599 255.877 137.765 183.208 261.592 64.758 505.032 9.094 759.42-49.041 726.138 181.658 848.076 413.18 1006.83 714.706 561.18 751.961 257.91 722.893z"/>
    <path fill="#ED6445" d="M792.751 600.762c-2.567 0-5.232-.194-7.8-.969-1.937-.581-3.681-1.454-5.426-2.326-1.404-.678-2.761-1.356-4.117-1.84-6.347-2.277-13.468-1.212-20.348-.194-1.744.242-3.536.533-5.329.775a83.911 83.911 0 0 1-29.891-1.744c-1.598-.388-4.747.145-6.879.484-.436.049-.872.146-1.211.194-5.378.775-53.823 3.052-100.234 1.793a1.4 1.4 0 0 1-1.405-1.502 1.4 1.4 0 0 1 1.502-1.405c48.251 1.308 95.535-1.163 99.701-1.744.339-.049.775-.097 1.211-.194 2.471-.388 5.862-.969 7.994-.436 9.495 2.277 19.184 2.858 28.873 1.647 1.744-.194 3.537-.484 5.232-.727 7.219-1.114 14.728-2.228 21.753.291 1.55.581 3.003 1.26 4.457 1.986 1.695.824 3.294 1.599 4.989 2.132 3.731 1.114 7.8.92 11.724.678l36.867-2.034c.776-.049 1.502.581 1.551 1.356a1.463 1.463 0 0 1-1.357 1.55l-36.867 2.035a56.653 56.653 0 0 1-4.99.194zM551.249 622.95c-3.343 0-6.685-.533-9.786-1.696-.775-.29-1.163-1.114-.872-1.841.291-.775 1.114-1.162 1.841-.872 7.412 2.665 16.132 1.744 22.818-2.422.339-.242.678-.436 1.066-.678 1.986-1.26 4.215-2.762 6.831-2.762 2.083 0 4.166 1.357 5.086 3.295.243.484.388 1.017.436 1.501 4.264-.726 8.575-.775 12.79-.872l68.309-1.259c4.602-.097 11.82-.146 20.202-.194 18.07-.097 40.549-.242 53.774-.872.824-.048 1.502.581 1.502 1.357.049.823-.581 1.501-1.356 1.501-13.275.63-35.802.775-53.92.872-8.382.049-15.6.097-20.202.194l-68.309 1.26c-4.796.097-9.737.194-14.437 1.259a1.431 1.431 0 0 1-1.55-.629 1.457 1.457 0 0 1 .097-1.696c.097-.097.387-.485.048-1.211-.436-.921-1.55-1.647-2.47-1.647-1.793 0-3.488 1.114-5.281 2.277-.388.242-.727.484-1.114.726-4.554 2.955-10.028 4.409-15.503 4.409zM593.688 632.251c-.146 0-.34-.048-.485-.097-.824-.29-1.502-.968-1.792-1.889-.34-1.017-.194-2.228.387-3.149.727-1.114 1.986-1.889 3.779-2.228 2.228-.485 4.602-.339 6.782.339.63.194 1.066.823 1.018 1.502-.097 1.259-.775 2.519-1.841 3.391-1.066.872-2.423 1.308-3.682 1.162-.775-.096-1.357-.823-1.308-1.598.097-.775.823-1.357 1.599-1.308.484.048 1.065-.146 1.501-.485.097-.097.194-.145.243-.242-1.26-.194-2.52-.145-3.779.097-1.018.194-1.647.533-1.938.969-.145.242-.097.63 0 .727a1.457 1.457 0 0 1 .872 1.84c-.194.63-.727.969-1.356.969zM836.837 605.703a1.496 1.496 0 0 1-1.454-1.211c-.145-.775.388-1.55 1.212-1.696 3.633-.629 7.315-.775 10.997-.484.823.048 1.405.775 1.356 1.55-.048.824-.775 1.405-1.55 1.357a46.007 46.007 0 0 0-10.319.436c-.048.048-.145.048-.242.048zM559.388 598.242c-.581 0-1.163-.387-1.357-.968a1.42 1.42 0 0 1 .872-1.841c2.907-1.018 6.202-1.211 9.254-.533l.145.048c.339.097.678.146.872.146.291-.049.63-.485.969-.921.484-.581 1.017-1.211 1.889-1.647 1.89-.921 3.876 0 5.329.678l.339.145c.969.485 2.084.533 2.326.194.145-.242.048-.726 0-1.211-.097-.678-.146-1.55.097-2.422.339-1.018 1.017-1.793 2.034-2.229 1.744-.775 3.973-.387 5.329.243 2.035.872 3.682 2.616 4.215 4.36.388 1.211.242 2.374-.387 3.391a1.48 1.48 0 0 1-1.987.484 1.48 1.48 0 0 1-.484-1.986c.097-.194.242-.484.097-1.017-.291-.969-1.405-2.035-2.616-2.568-1.018-.436-2.277-.533-2.955-.242-.291.145-.388.291-.436.436-.097.291-.049.727 0 1.211.096.872.193 1.938-.388 2.955-1.211 2.083-3.973 1.986-6.104 1.018l-.339-.146c-1.066-.484-2.132-1.017-2.81-.726-.291.145-.63.532-.921.92-.629.727-1.356 1.599-2.616 1.889-.823.146-1.502 0-2.083-.145l-.145-.048c-2.519-.582-5.232-.388-7.655.436-.145.048-.29.096-.484.096zM486.477 570.289V417.685c0-43.552 35.656-79.208 79.209-79.208 43.553 0 79.209 35.656 79.209 79.208v152.604"/>
    <path fill="#FED8CF" d="M574.164 134.326l.727 39.968L705.937 362.99v-39.725L574.164 134.326zM566.897 339.252c2.955.145 10.222.581 13.081 1.065 37.787 6.298 66.855 39.338 66.855 78.87v150.376l-75.576.048v.533l126.444.242-.969-208.316-125.475-183.368-4.36 160.55z"/>
    <path fill="#ED6445" d="M706.857 322.199c-.048-.146-.145-.242-.194-.339L575.957 132.34c-.436-.678-1.357-.824-2.035-.388-.678.436-.823 1.357-.387 2.035l130.512 189.229v34.348l-128.09-185.256c-.436-.679-1.357-.824-2.035-.388-.678.436-.823 1.357-.387 2.035l.29.436-2.955 3.1c-.291 0-.581.097-.823.243-.679.436-.824 1.356-.388 2.034l18.409 26.694c-2.567 9.156-4.505 18.7-.339 26.839 1.357 2.664 3.295 4.893 5.135 7.073 1.599 1.841 3.053 3.585 4.215 5.523 5.281 8.768 3.149 19.136.872 30.133-1.017 4.941-2.083 10.077-2.374 15.067-.581 9.495 1.551 19.087 3.585 28.437 2.18 9.883 4.264 19.233 3.295 28.341l2.906.291c1.018-9.544-1.211-19.572-3.342-29.262-2.035-9.107-4.118-18.554-3.537-27.614.291-4.796 1.308-9.786 2.326-14.63 2.277-11.046 4.602-22.431-1.26-32.217-1.308-2.18-2.955-4.069-4.505-5.958-1.841-2.132-3.585-4.167-4.797-6.541-3.391-6.588-2.228-14.291-.096-22.382l29.261 42.439v9.156c-.388-.242-.824-.484-1.308-.63-2.035-.678-4.409-.29-6.056.969-2.858 2.229-3.537 5.959-3.779 8.624a41.79 41.79 0 0 0 1.308 15.502 74.22 74.22 0 0 0 1.599 4.942c1.066 3.1 2.083 6.055 2.374 9.107.339 3.537-.194 7.025-.775 10.755-.582 3.876-1.211 7.897-.727 11.967.581 4.844 3.004 8.187 7.364 10.125v26.403l-.436.29c-.63.679-.63 1.744.048 2.374 15.503 14.825 24.078 34.687 24.078 56.003v152.12c0 .388.145.775.387 1.066.242.533.727.872 1.308.872h60.073c.824 0 1.453-.63 1.453-1.454 0-.823-.629-1.453-1.453-1.453h-6.346V363.571h6.346c.048 0 .097.049.145.049.049 0 .049 0 .097.048.097 0 .194.049.339.049.097 0 .194 0 .243-.049h.096c.049 0 .097-.048.194-.048.049 0 .049 0 .097-.049.049-.048.097-.048.194-.097 0 0 .048.001.048-.048l.049-.048.145-.146.097-.097c.049-.048.048-.096.097-.096.048-.049.048-.097.048-.146 0-.048.049-.097.049-.145 0-.049.048-.097.048-.146 0-.048.049-.096.049-.145v-.194-39.192a1.102 1.102 0 0 0-.049-.872zm-87.347 7.121c-2.665-1.55-4.021-3.827-4.457-7.218-.436-3.634.096-7.315.678-11.191.581-3.73 1.163-7.606.775-11.482-.339-3.439-1.453-6.637-2.519-9.786-.533-1.55-1.114-3.197-1.55-4.796-1.308-4.699-1.696-9.592-1.212-14.437.34-3.342 1.212-5.426 2.713-6.637.872-.678 2.229-.872 3.343-.484.533.194 1.163.533 1.357 1.308l.872-.242v64.965zm2.906 30.182V256.264l10.658 15.454c-.048 2.035-.193 4.167-.29 6.589-.678 11.821-1.55 28.05 5.038 51.352 2.18 7.655 2.713 20.832-6.879 40.356-2.762-3.731-8.527-10.513-8.527-10.513zm36.48-49.366v258.7h-12.305V417.685c0-16.326-4.796-31.877-13.807-45.103a.38.38 0 0 0 .194-.193c9.737-20.154 9.882-35.511 7.606-43.602-6.444-22.818-5.572-38.756-4.942-50.383.049-.969.097-1.841.145-2.762l23.739 34.445h-.63v.049zm21.994 258.7h-19.087V313.43l23.544 34.154c-8.042 15.794-11.287 34.3-8.865 51.789.872 6.298 2.422 12.693 3.924 18.894 3.73 15.308 7.267 29.794 1.599 43.359-1.357 3.245-3.246 6.346-5.087 9.301-1.405 2.277-2.858 4.651-4.07 7.122-5.571 11.094-6.685 24.271-3.1 36.14 1.259 4.167 3.052 8.139 4.796 11.966 1.26 2.762 2.568 5.668 3.633 8.527 4.021 10.755 4.942 22.915 2.713 34.154zm14.825-151.538c-2.568-4.167-5.184-8.527-6.444-13.129-1.647-6.007-1.356-11.821.873-16.326.823-1.599 2.083-3.246 3.439-4.942.727-.92 1.454-1.841 2.132-2.81v37.207zm0-43.698c-.049.048-.049.145-.049.193-.533 2.471-2.47 4.942-4.36 7.316-1.356 1.744-2.81 3.585-3.73 5.474-2.568 5.184-2.955 11.724-1.114 18.41 1.453 5.28 4.408 10.028 7.266 14.63.34.581.727 1.163 1.066 1.696.194.339.533.581.921.63v146.839h-11.869a65.915 65.915 0 0 0-2.956-35.172c-1.114-3.004-2.422-5.91-3.73-8.72-1.696-3.731-3.488-7.655-4.651-11.579-3.391-11.191-2.325-23.544 2.907-34.009 1.163-2.374 2.616-4.651 3.973-6.927 1.889-3.101 3.827-6.298 5.28-9.738 6.007-14.437 2.229-30.085-1.453-45.2-1.502-6.104-3.052-12.451-3.876-18.603-2.277-16.423.581-33.718 7.848-48.688l8.478 12.305V373.6h.049zM588.94 332.566c2.408 0 4.361-3.253 4.361-7.267 0-4.013-1.953-7.267-4.361-7.267-2.408 0-4.36 3.254-4.36 7.267 0 4.014 1.952 7.267 4.36 7.267z"/>
    <path fill="#ED6445" d="M666.066 366.817h-.049l-8.381-.339a1.49 1.49 0 0 1-1.405-1.502 1.49 1.49 0 0 1 1.502-1.405l8.381.34a1.489 1.489 0 0 1 1.405 1.501c0 .824-.678 1.405-1.453 1.405z"/>
    <path fill="#fff" d="M552.17 354.851s-45.684-5.135-67.921-14.485c-16.132-6.782-1.889 1.114-15.648 28.438-13.758 27.323-14.533 63.173-14.533 63.173l-3.101 21.364s23.642 20.251 57.99 28.196c34.348 7.993 61.574 11.433 61.574 11.433s.097 20.977 16.326 32.313c16.23 11.337 32.943 11.821 32.943 11.821s30.473-3.585 34.009 9.447c3.585 12.983.679 23.787-10.997 36.625-11.675 12.838-18.312 14.485-18.312 14.485s-7.267-6.346-12.402-4.893c-5.136 1.502-15.891 9.011-9.35 20.444 6.54 11.433 41.469.049 41.469.049s11.869-11.627 17.15-21.607c5.28-9.98 25.482-46.217 25.482-46.217s9.641-17.974 2.859-24.078c-3.295-1.841-20.057-5.038-20.057-5.038s-20.492-2.568-23.69-13.129c-3.197-10.561.339-19.621 8.284-23.884l10.174-5.377s3.827 13.032 13.468 26.015c9.641 13.032 23.157 19.863 34.687 22.818 11.53 2.955 25.143 7.364 28.825 12.354 3.682 4.99 9.108 20.008 6.734 29.6-2.325 9.592-9.059 18.991-9.059 18.991s-15.89 2.713-15.261 10.997c.63 8.284 6.589 10.222 16.52 11.143 9.883.92 24.611 2.955 27.566-10.222 3.004-13.226 2.568-37.691 2.568-37.691s7.945-32.895 3.052-38.176c-4.845-5.28-26.985-9.882-34.203-16.713-7.218-6.831-18.991-21.171-22.285-46.993-3.294-25.821-.097-32.507-4.215-44.279-4.118-11.772-7.024-17.005-7.024-17.005s22.818-.968 46.556-11.142c23.69-10.174 33.621-15.067 54.356-35.511 6.783-6.734 11.482-11.772 14.679-15.599 1.55-1.841-.775-4.409-2.761-3.004-12.354 8.623-34.687 22.77-56.246 29.358-32.168 9.786-67.533 7.412-67.533 7.412l-55.519-4.118s-63.222.049-87.154-7.315z"/>
    <path fill="#fff" d="M480.761 338.283s-15.212-10.513-23.593-27.517c-8.333-17.005-23.06-40.065-56.779-40.695-33.718-.63-34.977 16.472-66.128 15.794-31.151-.679-51.401-7.897-51.789-4.554-.387 3.342-7.363 20.008 15.988 41.518 23.35 21.51 84.053 37.981 84.053 37.981s-7.751 26.984-3.246 43.02c4.505 16.035 17.004 18.506 17.004 18.506l-26.209 46.75s-15.066 24.078-13.177 32.41c1.889 8.333 14.098 29.504 24.756 41.228 10.658 11.675 28.438 9.931 28.438 9.931s6.491-5.959 3.1-17.586c-3.391-11.627-19.621-9.786-19.621-9.786s-11.336-22.721-10.318-25.87c1.017-3.197 28.583-31.586 28.583-31.586s15.599-15.987 20.25-16.763c4.651-.775 12.499-1.259 12.499-1.259s19.136 13.565 29.6 18.7l27.517-81.437-20.928-48.785z"/>
    <path fill="#FED8CF" d="M588.165 436.095s-17.876 8.332-56.052-2.471c-9.737-2.761-24.562-3.246-22.914 6.492 1.937 11.481 15.648 2.761 16.665 23.98.775 16.036 15.406 15.067 21.849 10.368 14.001-10.077 23.981 4.65 23.981 4.65s2.567-14.436 5.765-22.042c3.294-7.655 10.706-20.977 10.706-20.977zM552.17 354.851s16.956 5.959-6.879 16.133c-13.323 5.668-26.985 11.772-24.272 24.174 2.713 12.402 18.216 19.863 37.207 22.576 18.99 2.713 48.155.097 49.317-11.821 1.163-11.918-4.602-21.219 6.105-22.382 10.706-1.163 45.975 6.153 57.699-18.603 0 0-34.591-2.325-60.073-4.942-34.542-3.536-59.104-5.135-59.104-5.135z"/>
    <path fill="#fff" d="M608.416 599.841c-1.454 3.004-1.696 6.637-.388 9.738 1.696 3.972 5.62 6.443 9.398 8.575-3.924-.339-7.848-1.211-11.578-2.519-1.017-.339-2.083-.775-2.907-1.502-.727-.63-1.211-1.502-1.599-2.374-1.889-4.36-1.356-9.641 1.357-13.516 1.938-2.713 6.007-5.862 9.544-5.717 3.1.097 1.598.872-.049 2.422-1.502 1.405-2.858 3.004-3.778 4.893zM649.594 539.865c-4.457-4.36-24.126-7.896-30.084-9.737-31.248-9.738-30.521-38.999-29.31-46.993 2.035-13.467 5.668-19.959 6.395-31.102.339-5.619-4.312-14.388-8.478-15.987a7.972 7.972 0 0 1-1.793 2.035c-.387.291-.775.63-1.114.92a8.93 8.93 0 0 1-2.713 4.457 2.663 2.663 0 0 1-.291.388c-.097.872-.484 1.066-.436.775-.775 1.986-1.308 4.021-1.792 6.056-.969 3.972-1.841 7.848-3.294 11.627-2.084 5.474-3.585 11.094-4.748 16.859 0 .097-.242 1.211-.291 1.599-.145.92-.339 1.889-.484 2.81-.049.29-.097.581-.194.823.145.339-.194 1.986-.339 2.762.92 2.422.92 5.038-.097 7.412.388 5.183 2.761 21.219 16.229 30.666 16.23 11.336 32.943 11.821 32.943 11.821s20.299-2.374 29.698 3.827c.242-.291.29-.63.193-1.018zM661.415 591.702c5.281-9.979 25.482-46.217 25.482-46.217s9.641-17.973 2.859-24.077c-1.115-.582-3.634-1.357-6.589-2.084.242.194.436.34.581.436 3.585 3.585 3.101 9.738.679 14.195-2.423 4.457-6.347 7.897-9.496 11.869a41.421 41.421 0 0 0-7.654 15.309c-.824 3.101-1.211 6.25-2.035 9.35-2.131 8.527-6.928 16.375-13.468 22.237-2.567 2.277-5.426 4.263-7.412 7.024-2.664 3.682-3.633 8.478-6.879 11.627-2.81 2.713-6.879 3.731-10.028 5.959 8.962-1.453 16.81-4.021 16.81-4.021s11.869-11.627 17.15-21.607zM773.519 519.809c-4.457-4.893-23.545-9.108-32.168-15.115l-1.744 4.457s12.838 3.197 24.998 13.274c5.862 4.845 5.038 18.894.339 32.168-8.042 22.818-.775 35.317-6.104 42.971-3.973 5.669-21.171 9.06-16.908 8.236.291-.048 18.458-.872 18.797-.969 3.44-1.55 6.104-4.311 7.17-9.156 3.004-13.226 2.568-37.691 2.568-37.691s7.945-32.894 3.052-38.175zM461.092 533.907s-2.277 27.759-6.492 31.005c-4.214 3.246-10.319 5.91-10.319 5.91s-23.738.485-23.447-5.91c.29-6.395 3.924-11.579 13.564-7.994 0 0 2.471-3.294 3.489-32.749 1.017-29.455-1.212-73.977-1.212-73.977l6.928-.29 26.936 16.665-9.447 67.34zM570.434 358.533c20.88 1.696 41.761 3.488 62.641 5.087l15.648 1.163c5.232.339 10.415.775 15.648 1.065 10.415.727 20.88 1.308 31.296 1.841l7.848.339 3.924.194c1.308.049 2.616.097 3.876.097 5.183.097 10.367.049 15.551-.339 5.183-.339 10.319-.872 15.454-1.696a163.01 163.01 0 0 0 15.212-3.197 134.772 134.772 0 0 0 14.776-4.796c4.844-1.841 9.592-3.924 14.243-6.347 9.253-4.699 18.022-10.512 26.16-17.101-7.557 7.267-16.084 13.516-25.24 18.797-4.602 2.616-9.35 4.942-14.194 7.025-4.845 2.083-9.883 3.827-14.922 5.329a140.187 140.187 0 0 1-15.454 3.633 172.508 172.508 0 0 1-15.745 2.035c-5.28.387-10.561.484-15.841.436-1.309-.049-2.665-.049-3.973-.097l-3.924-.145a428.923 428.923 0 0 1-7.848-.339 1232.853 1232.853 0 0 1-62.689-4.942 1371.641 1371.641 0 0 1-31.248-3.585c-10.464-1.405-20.831-2.761-31.199-4.457z"/>
    <path fill="#ED6445" d="M821.77 329.03c-1.308-1.357-3.342-1.551-4.893-.436-9.204 6.782-18.554 12.741-27.711 17.682-40.452 21.849-76.786 19.621-94.275 18.555-105.515-6.492-168.397-13.952-170.19-14.195-13.759-2.373-39.289-6.734-54.162-22.624-4.506-4.796-8.381-11.336-12.451-18.215-8.962-15.164-19.136-32.314-40.21-38.66-20.299-6.104-37.787.436-53.242 6.201-7.993 3.004-15.551 5.814-22.769 6.686-14.873 1.792-37.739-.921-50.238-2.713.145-3.052-2.035-6.201-5.62-7.703-4.312-1.793-9.011-.436-10.464 3.052-1.405 3.343.678 7.412 4.65 9.301a37.31 37.31 0 0 0 .533 9.738c2.616 14.388 12.742 24.95 20.735 31.296 27.324 21.655 78.724 35.365 79.209 35.462a.61.61 0 0 0 .291.049c-3.198 12.983-5.281 26.015-3.779 36.964 2.083 15.309 11.772 21.316 17.392 23.544-.049.049-.097.146-.146.194-1.501 2.665-37.4 65.499-39.289 75.236-2.083 10.804 19.524 39.484 25.482 45.297 5.717 5.571 20.541 10.658 27.372 10.658 1.211 0 2.18-.145 2.762-.484 2.277-1.26 3.778-5.378 4.457-8.769.533-2.761 1.356-9.738-2.423-14.437-4.893-6.007-8.478-8.139-18.312-6.831-4.796-10.561-9.592-22.188-9.786-24.271.872-1.938 9.544-12.451 21.268-24.707 15.405-16.036 23.641-22.091 26.257-22.431.533-.048 1.163-.145 1.841-.193.388-.049.775-.097 1.211-.146 1.502 14.34 2.422 65.354-.194 89.189a80.275 80.275 0 0 1-2.567 13.032c-1.89-.678-5.232-1.454-8.188.145-2.955 1.599-4.602 5.087-4.989 10.367-.097 1.115.29 2.713 2.422 4.118 2.907 1.938 8.72 3.052 14.776 3.052 5.28 0 10.755-.872 14.534-2.809 7.993-4.118 8.962-14.05 9.737-21.995.049-.63.097-1.211.194-1.792 1.695-16.23 3.197-27.517 6.395-48.155 2.131-13.614 3.73-24.562 4.311-28.729 5.765 2.956 11.87 5.717 17.877 7.849 35.075 12.402 62.495 16.616 79.596 17.973.291 7.509 2.132 13.904 5.523 19.184 16.278 25.58 44.231 25.531 59.249 25.531h2.471c6.637.049 11.53 1.793 14.437 5.232 3.052 3.585 4.069 9.011 3.003 16.181-1.017 6.783-11.869 26.839-28.244 35.463l-.193-.194c-.388-.291-9.496-7.073-16.133-4.36-4.311 1.744-8.526 6.249-10.173 10.852-1.308 3.633-1.115 7.266.629 10.464 2.762 5.087 11.482 6.249 18.313 6.346h.775c7.364 0 15.793-1.162 21.801-3.003 8.962-2.762 19.523-16.278 31.393-40.21 4.117-8.333 7.702-14.534 10.561-19.524 2.325-4.021 4.118-7.218 5.522-10.174 5.087-10.997 9.108-22.769.582-26.839-2.277-1.065-8.478-2.567-15.648-4.263-8.914-2.131-20.057-4.796-22.721-6.685a20.707 20.707 0 0 1-2.132-1.744c-1.405-1.744-2.713-4.748-2.519-9.835.242-5.329 1.55-8.72 2.616-10.609.969-1.793 1.938-2.616 2.18-2.81.388-.194.824-.436 1.308-.679 2.616-1.356 6.831-3.488 11.821-6.443 2.471 6.54 11.918 29.31 27.13 38.951 8.429 5.329 18.651 8.429 27.662 11.142 9.689 2.907 18.07 5.426 21.752 9.835 7.219 8.574 8.72 28.389 4.36 35.849a157.773 157.773 0 0 1-3.294 5.426c-1.114 1.793-2.132 3.44-3.1 5.136-3.004.678-15.455 3.875-15.794 12.256-.194 4.603 1.647 7.8 5.571 9.835 3.295 1.695 8.042 2.616 15.455 2.907 2.131.096 4.263.145 6.249.145 9.544 0 17.101-1.502 19.524-8.866 2.228-6.734 2.277-14.533 2.374-27.468 0-2.132.048-4.409.048-6.831.097-8.188 1.599-16.714 2.907-24.223.969-5.426 1.792-10.125 1.792-13.42.049-7.17-4.893-11.917-15.26-14.582l-10.028-3.778c-7.316-3.537-15.6-9.35-20.493-17.732-6.249-10.755-13.419-26.403-12.838-52.418.436-20.783-7.655-38.417-10.077-43.117h1.066c22.188 0 47.428-8.768 75.43-26.257 16.229-10.125 29.503-24.708 37.788-35.123 1.356-1.502 1.259-3.537-.049-4.893zM464.58 496.797c-3.198 20.687-4.699 31.974-6.395 48.301-.048.581-.097 1.211-.194 1.792-.726 7.267-1.598 16.326-8.187 19.718-.339.145-.678.339-1.066.484 1.308-2.229 2.132-5.765 1.114-11.239-11.287-60.897-2.373-95.002-.726-100.477 4.796 3.101 11.869 7.509 19.911 11.772-.436 3.004-2.132 14.728-4.457 29.649zm355.156-164.715c-8.139 10.222-21.171 24.562-37.061 34.445-35.802 22.382-66.952 30.278-92.58 23.447a1.49 1.49 0 0 0-1.793 1.018 1.487 1.487 0 0 0 1.018 1.792c4.844 1.308 9.883 2.083 15.066 2.326.049.097.049.193.146.29.096.194 10.851 19.766 10.367 42.875-.339 16.132 2.035 29.794 7.606 42.729v.484c.194.872 4.748 21.22 12.596 27.13 7.509 5.62 23.448 6.346 25.385 6.395 8.914 2.325 13.032 6.056 12.984 11.724-.049 3.052-.824 7.654-1.793 12.935-1.259 7.218-2.858 16.229-2.955 24.659-.048 2.422-.048 4.699-.048 6.83-.097 12.645-.194 20.251-2.229 26.597-2.083 6.395-9.35 7.267-22.866 6.686-15.503-.63-18.506-4.215-18.264-9.738.194-4.602 6.588-7.557 11.094-8.914-.969 2.083-1.696 4.215-2.035 6.443-.145.775.436 1.551 1.211 1.647h.243c.726 0 1.308-.532 1.453-1.211.727-4.602 3.294-8.72 6.54-13.952 1.066-1.744 2.18-3.537 3.343-5.474 2.422-4.167 3.391-11.385 2.567-19.282-.872-8.236-3.488-15.502-7.218-19.911-4.263-5.038-12.983-7.703-23.157-10.755-8.866-2.664-18.894-5.668-26.984-10.803a31.777 31.777 0 0 1-3.391-2.471c6.782-5.378 2.955-14.049.096-20.444-1.308-2.955-2.519-5.717-2.713-7.8-.29-3.1 2.471-5.426 5.62-8.139 3.294-2.81 7.025-6.007 7.751-10.803 1.066-6.831-2.955-9.98-5.571-11.288 2.616-3.052 4.99-6.25 7.025-9.689.387-.678.194-1.599-.485-1.987-.678-.387-1.598-.193-1.986.485-6.298 10.513-15.89 19.184-25.143 25.773l-9.98 6.443c-.048.049-.097.049-.097.097-.097.049-.145.146-.194.194-5.377 3.246-9.98 5.571-12.741 6.976-.533.291-.969.485-1.356.678-.776.291-5.62 1.987-10.562 4.409-7.606 3.73-11.384 7.17-11.481 10.513-.388 8.768 20.589 15.115 22.963 15.841a.61.61 0 0 0 .291.049c4.311 1.938 13.322 4.118 22.091 6.201 6.734 1.599 13.08 3.149 15.067 4.069 4.941 2.374 4.36 9.254-1.987 23.012-1.308 2.81-3.1 5.959-5.377 9.932-2.907 5.038-6.492 11.287-10.658 19.668-11.336 22.818-21.559 36.189-29.649 38.709-10.949 3.391-33.815 4.893-37.449-1.938-1.356-2.471-1.501-5.184-.436-8.091 1.551-4.36 5.475-7.896 8.527-9.107 3.682-1.502 9.35 1.405 12.257 3.294a39.047 39.047 0 0 1-4.748 1.599c-.775.193-1.26.969-1.066 1.792.146.678.775 1.114 1.405 1.114.097 0 .242 0 .339-.048 11.966-3.101 21.171-12.16 26.742-19.233 6.589-8.381 10.755-17.198 11.385-21.607 1.211-8.042-.048-14.243-3.682-18.506-3.536-4.118-9.108-6.201-16.665-6.25h-2.519c-14.437 0-41.373.049-56.827-24.174-16.181-25.337 11.675-74.122 11.966-74.606.387-.679.145-1.599-.533-1.987-.678-.387-1.599-.145-1.986.533-.097.145-7.316 12.741-12.402 28.438-3.295 10.125-4.942 19.184-5.039 27.081-16.956-1.357-43.988-5.523-78.627-17.78-18.167-6.443-37.303-18.845-43.795-23.302 12.305-2.519 28.244-8.381 38.66-23.496.436-.678.29-1.55-.388-2.035a1.477 1.477 0 0 0-2.035.388c-13.952 20.25-38.708 22.963-49.317 24.126-.679.097-1.309.145-1.89.193-2.955.34-10.367 4.797-28.631 23.933-5.232 5.474-10.61 11.433-14.728 16.326-6.685 7.896-6.734 8.914-6.734 9.495-.097 2.762 6.686 18.264 9.738 24.998-.63.097-1.26.242-1.938.339a1.474 1.474 0 0 0-1.163 1.696 1.474 1.474 0 0 0 1.696 1.163c13.032-2.52 15.793-.727 20.444 4.989 2.083 2.617 2.761 7.122 1.841 12.063-.775 3.925-2.229 6.347-3.004 6.783-2.18 1.211-20.056-3.198-26.693-9.689-6.783-6.589-26.306-34.009-24.659-42.632 1.453-7.413 26.112-51.886 38.95-74.365.146-.242.194-.484.194-.775a29.847 29.847 0 0 0 8.187 1.163c5.281 0 10.222-1.405 13.565-4.166 15.939-13.129 23.545-40.307 27.178-60.8 4.748-26.984 3.682-49.705 3.634-49.947-.049-.824-.727-1.405-1.502-1.357-.824.049-1.405.727-1.357 1.502 0 .242 1.066 22.624-3.633 49.269-3.537 20.008-10.9 46.508-26.161 59.056-5.426 4.457-14.873 4.263-21.364 1.695-5.039-1.986-13.759-7.364-15.648-21.219-2.423-17.925 5.183-42.342 11.288-62.011 2.422-7.799 4.747-15.212 6.007-21.025 3.246-14.824-.436-32.943-.582-33.718-.145-.775-.92-1.308-1.695-1.115-.775.146-1.308.921-1.114 1.696.048.194 3.73 18.264.581 32.507-1.26 5.668-3.537 12.984-5.959 20.783-2.277 7.364-4.796 15.406-6.928 23.545-.097-.048-.193-.097-.242-.097-.533-.145-51.304-13.71-78.143-34.929-13.71-10.852-18.264-21.946-19.669-29.358a33.848 33.848 0 0 1-.533-8.478c3.149.533 6.153-.533 7.655-2.762 12.499 1.841 35.898 4.699 51.498 2.81 7.606-.92 15.308-3.779 23.447-6.831 15.745-5.91 32.023-11.966 51.401-6.152 20.008 6.007 29.843 22.672 38.515 37.351 4.166 7.073 8.09 13.71 12.838 18.749 15.551 16.568 41.76 21.074 55.809 23.496h.049c.629.097 63.754 7.654 170.432 14.195 11.966.726 25.191 1.114 40.694-.921 19.33-2.568 37.885-8.623 55.131-17.973 9.302-5.039 18.749-11.046 28.05-17.877.485-.339.872-.097 1.066.097.242.339.533.775.146 1.26z"/>
    <path fill="#ED6445" d="M364.443 294.633c-4.457-1.017-8.817-1.308-12.305-.823-3.925.581-6.395 2.131-6.928 4.408-1.163 4.942 7.218 9.738 15.648 11.676a38.812 38.812 0 0 0 8.672 1.017c5.329 0 9.786-1.357 10.512-4.651 1.26-4.893-7.121-9.689-15.599-11.627zm12.838 10.997c-.436 1.938-6.783 3.488-15.697 1.405a52.338 52.338 0 0 1-3.536-.969c4.651-.097 8.042-1.356 8.526-3.536.388-1.647-.92-3.488-3.294-5.232.194.048.339.097.533.097 8.914 2.131 13.952 6.297 13.468 8.235zM365.363 284.605c.388-.194.679-.291 1.018-.436.339-.145.678-.242 1.017-.339.678-.242 1.357-.388 2.035-.533a18.507 18.507 0 0 1 4.36-.388c1.502.049 3.1.388 4.602.969l1.114.485c.388.193.727.436 1.066.629l.533.34.485.387.969.824c1.453 1.211 1.647 3.391.436 4.796-1.212 1.453-3.392 1.647-4.797.436a2.318 2.318 0 0 1-.484-.485l-.194-.242c-.145-.145-.242-.339-.387-.533l-.194-.29-.242-.243c-.146-.145-.291-.339-.485-.484-.194-.145-.339-.242-.533-.388a9.336 9.336 0 0 0-2.616-1.211 13.767 13.767 0 0 0-3.197-.387c-.582 0-1.114 0-1.696.097-.29 0-.581.048-.872.096-.29.049-.581.097-.775.146l-.194.048a1.78 1.78 0 0 1-2.034-1.405c-.097-.775.339-1.55 1.065-1.889z"/>
    <path fill="#fff" d="M141.737 490.112l-28.098-38.418 14.534 55.228s-23.254-34.251-33.573-44.57c-10.32-10.319-14.873-14.194-14.873-14.194l22.285 53.29s-14.534-17.44-27.469-29.067c-12.935-11.627-38.756-23.254-38.756-23.254l32.604 47.137s18.748 34.251 21.655 43.941c0 0-20.687-16.133-40.695-18.749 0 0 22.625 22.285 27.47 29.067 4.844 6.783 8.38 19.04 8.38 19.04s-8.72-8.381-14.194-10.658l-1.308 10.319s-6.153-20.977-21.656-25.531c0 0 11.627 17.44 12.257 26.16h83.666l-2.229-79.741z"/>
    <path fill="#ED6445" d="M143.966 569.127l-.969-34.106c.145-.339.145-.775 0-1.163 0-.048 0-.048-.049-.097l-1.211-42.923a1.398 1.398 0 0 0 .146-1.792L113.3 446.898c-.388-.581-1.163-.824-1.793-.484a1.442 1.442 0 0 0-.775 1.695l14.631 52.515-.291-.436a232.34 232.34 0 0 0-5.571-8.429c.097-.291.097-.582 0-.921-4.215-12.45-10.029-25.579-15.551-36.915.484-.63.775-1.551 1.017-2.471.678-2.568 1.163-6.734 1.211-10.367.145-7.316-1.453-8.236-2.035-8.624-.484-.29-1.695-.775-3.149.63-1.065.969-1.986 5.813-1.889 11.046-3.973-7.703-7.364-13.904-9.35-17.441 1.357-1.453 1.647-3.682.485-5.426l-6.686-10.125a4.358 4.358 0 0 0-6.056-1.211c-1.986 1.308-2.567 4.021-1.21 6.056l6.685 10.125a4.382 4.382 0 0 0 4.166 1.938c4.7 8.332 17.876 32.458 26.79 55.906-17.585-23.787-34.057-38.611-34.25-38.757-.485-.436-1.26-.484-1.842-.096-.532.387-.775 1.114-.484 1.744l20.88 48.542c-12.596-15.357-25.289-26.112-35.172-33.185-16.665-11.869-28.873-16.133-29.406-16.326-.63-.194-1.308 0-1.696.581-.387.533-.339 1.26.097 1.744.146.145 14.195 16.569 29.068 39.726 8.478 13.177 18.36 30.278 25.724 48.348-17.73-14.097-38.078-16.713-38.998-16.859-.63-.097-1.26.291-1.502.872a1.5 1.5 0 0 0 .436 1.696c.29.242 26.548 21.025 35.801 42.293-4.844-4.554-11.675-7.461-12.063-7.654a1.364 1.364 0 0 0-1.356.145c-.388.291-.63.727-.63 1.211v3.585c-7.316-14.97-21.946-21.413-22.673-21.704-.63-.242-1.356-.048-1.744.485a1.456 1.456 0 0 0 .097 1.792c.145.146 14.195 16.133 15.115 26.646H48.625c-4.167-12.112-9.205-23.061-13.856-31.926a.67.67 0 0 0 .194-.146c1.453-1.162 1.647-3.1 1.695-4.166 0-.242.097-.678.194-1.211.533-3.294.824-5.91-.63-6.976-.436-.291-1.308-.727-2.616-.049-2.083 1.115-2.325 3.876-2.083 6.444a207.95 207.95 0 0 0-8.139-13.517c1.212-1.453 1.405-3.585.291-5.183l-6.686-10.126c-1.308-1.986-4.02-2.567-6.055-1.211-1.986 1.308-2.568 4.021-1.211 6.056l6.685 10.125a4.473 4.473 0 0 0 4.457 1.889c2.52 3.828 7.122 11.288 12.16 21.123-1.55-1.066-3.004-1.502-4.07-1.308-.968.145-1.646.775-1.84 1.599-.097.436.048.872.339 1.211 0 .048 2.374 2.713 4.796 5.329 3.779 4.021 5.329 5.329 6.443 5.329h.146c2.325 5.232 4.602 10.852 6.637 16.762H30.7c-.824 0-1.454.63-1.454 1.453 0 .824.63 1.454 1.454 1.454h112.394c.823 0 1.453-.63 1.453-1.454 0-.484-.242-.92-.581-1.162zm-41.567-119.661c-1.017-5.523-.193-11.87.436-13.904.776 2.519.339 9.786-.436 13.904zm-40.21 119.37c-.532-7.267-6.443-16.472-10.9-22.43 5.765 4.021 13.71 11.287 16.908 22.43h-6.008zm65.79-95.099l-3.537 12.983-8.575-30.811 12.112 17.828zm-45.152-21.461c7.897 7.848 23.593 24.658 38.176 47.04l-5.572 20.638a206.851 206.851 0 0 0-10.125-15.406.37.37 0 0 0-.097-.242l-22.382-52.03zm-11.433 116.56v-8.526c3.004 1.501 8.526 4.65 11.385 8.526H71.394zm15.939 0c-2.907-10.028-10.32-21.365-21.995-33.621-4.747-4.942-9.253-9.06-12.402-11.821 7.994 1.889 23.303 6.782 35.899 18.409.048.049.145.097.193.146 3.295 8.914 5.91 17.973 7.364 26.887h-9.06zm-23.787-82.503c-10.367-16.133-20.347-29.019-25.58-35.462 5.087 2.325 13.468 6.685 23.351 13.71 14.728 10.512 35.656 29.261 53.048 59.346l-12.159 44.909h-2.859c-4.699-29.552-22.042-61.139-35.801-82.503z"/>
    <path fill="#fff" d="M139.605 531.242a1.43 1.43 0 0 1-1.308-.824 209.548 209.548 0 0 0-6.152-12.353 244.998 244.998 0 0 0-9.544-16.278c-.436-.678-.242-1.599.436-1.986.678-.436 1.599-.242 1.986.436a231.048 231.048 0 0 1 9.641 16.471 251.493 251.493 0 0 1 6.249 12.548c.34.726 0 1.598-.726 1.938-.194 0-.388.048-.582.048zM133.937 565.445c-.63 0-1.162-.388-1.356-.969-2.035-6.056-4.36-12.015-6.783-17.731a222.577 222.577 0 0 0-10.076-20.444 1.456 1.456 0 0 1 .581-1.987 1.456 1.456 0 0 1 1.986.582 228.817 228.817 0 0 1 10.222 20.734 255.907 255.907 0 0 1 6.88 17.974c.242.775-.146 1.599-.921 1.841h-.533z"/>
    <path fill="#ED6445" d="M539.768 354.028s-27.275 15.212-37.304 58.619c-5.087 22.043-.969 61.768 11.869 69.035l-27.614-8.962s-.968-57.409.243-62.011c1.211-4.602 3.924-26.984 18.409-43.698 13.323-15.406 19.378-14.631 19.378-14.631l15.019 1.648z"/>
    <path fill="#FED8CF" d="M574.164 134.326l-152.12 186.516 1.454 39.241 149.358-185.401 1.308-40.356z"/>
    <path fill="#FED8CF" d="M570.289 569.611l-83.327.049V419.236c0-43.941 35.947-79.936 79.935-79.936l3.392-160.743L429.312 352.38l-.485 217.522 141.462.242v-.533z"/>
    <path fill="#FED8CF" d="M137.668 331.985l6.298 237.868h299.88l-8.721-233.993-20.347-8.72-277.11 4.845z"/>
    <path fill="#ED6445" d="M649.013 568.836h-282.1l-4.36-168.204 65.305 12.257 1.55-59.636-5.91 8.526-8.139-1.211.484-35.123-275.704 11.094c-.049-.775-.679-1.405-1.454-1.405h-.048a1.4 1.4 0 0 0-1.405 1.502l4.36 233.169c0 .048 0 .145.048.194 0 .097-.048.145-.048.242 0 .824.63 1.453 1.453 1.453h505.919c.824 0 1.454-.629 1.454-1.453 0-.824-.582-1.405-1.405-1.405zM358.338 399.857l1.55 169.027h-63.367l-3.391-181.235 65.208 12.208zm-70.973-13.371l3.391 182.35h-69.761l-3.634-195.479 70.004 13.129zm-146.742-27.565l71.409 13.419 3.633 196.496h-71.118l-3.924-209.915z"/>
    <path fill="#fff" d="M431.104 353.252h-3.391v216.553h3.391V353.252z"/>
    <path fill="#FED8CF" d="M564.475 136.748L292.21 150.313l-159.387 179.25 290.19-7.51 113.848-134.921 27.614-50.384z"/>
    <path fill="#fff" d="M564.911 136.458l-244.99 13.032-27.662.823-56.779 63.852 6.056-5.329 199.257-9.544 42.729-32.895-211.175 7.17 7.122-6.249 216.601-10.61 12.789-9.834c29.213-1.115 49.318-1.89 49.318-1.89l6.734-8.526zM199.775 254.278l1.551-1.357 181.187-8.72 46.168-35.607-194.025 6.491-34.881 39.193zM132.823 329.563l140.59-1.405 38.466-29.601-154.251 3.149-24.805 27.857zM157.822 301.464l6.831-5.959 158.369-5.571 47.816-36.77-175.374 5.958-37.642 42.342zM574.164 134.326l-6.54-.484-151.635 187.242-.969 39.726 8.478-.727-.484-38.03 64.19-80.904 86.96-106.823z"/>
    <path fill="#FED8CF" d="M177.49 360.035a4.36 4.36 0 1 0 0-8.722 4.36 4.36 0 0 0 0 8.722zM252.969 358a4.36 4.36 0 1 0 0-8.72 4.36 4.36 0 0 0 0 8.72zM330.337 361.827a4.36 4.36 0 1 0 0-8.72 4.36 4.36 0 0 0 0 8.72zM391.476 354.657a4.36 4.36 0 1 0 0-8.72 4.36 4.36 0 0 0 0 8.72z"/>
    <path fill="#ED6445" d="M398.936 552.316a4.36 4.36 0 1 0 0-8.72 4.36 4.36 0 0 0 0 8.72zM325.638 557.693a3.875 3.875 0 1 0 0-7.75 3.875 3.875 0 0 0 0 7.75zM258.637 560.31a4.796 4.796 0 1 0 0-9.593 4.796 4.796 0 0 0 0 9.593zM179.574 558.081a3.73 3.73 0 1 0 0-7.46 3.73 3.73 0 0 0 0 7.46zM574.745 167.269c-.823 0-1.453-.63-1.453-1.453V144.5c0-.824.63-1.454 1.453-1.454.824 0 1.454.63 1.454 1.454v21.316c0 .823-.63 1.453-1.454 1.453zM500.66 316.199c3.543-1.997 5.541-5.166 4.463-7.077-1.078-1.911-4.823-1.84-8.365.157-3.542 1.998-5.54 5.166-4.463 7.077 1.078 1.911 4.823 1.841 8.365-.157zM565.928 266.099c2.141 0 3.876-2.061 3.876-4.603s-1.735-4.602-3.876-4.602c-2.14 0-3.875 2.06-3.875 4.602 0 2.542 1.735 4.603 3.875 4.603z"/>
    <path fill="#fff" d="M212.759 336.829l.242 7.267.194 7.267.387 14.485.63 29.019c.436 19.33.678 38.66.969 58.038l.291 29.019c.048 9.689.194 19.33.194 29.019l.096 29.019-.048 14.486v7.266l-.048 7.267-.291-7.267-.242-7.266-.533-14.486-.872-29.019c-.291-9.689-.533-19.33-.775-29.019l-.679-29.019c-.387-19.33-.775-38.659-.969-57.989l-.339-29.019-.097-14.485-.048-7.267v-7.267c0-.533.436-.969.969-.969.533 0 .969.387.969.92zM288.092 334.407l.243 7.315.193 7.316.388 14.63.581 29.31c.388 19.524.63 39.096.872 58.619l.291 29.31c.048 9.786.145 19.524.145 29.31l.097 29.309-.048 14.679v7.316l-.049 7.315-.29-7.315-.243-7.316-.484-14.63-.872-29.31c-.291-9.786-.485-19.524-.775-29.31l-.63-29.309a7848.687 7848.687 0 0 1-.969-58.62l-.339-29.309-.097-14.679-.048-7.316v-7.315c0-.581.484-1.066 1.065-1.066.485.049.969.485.969 1.066zM358.823 332.711c.242 9.835.339 19.669.533 29.504l.339 29.503c.145 9.835.145 19.669.242 29.504l.194 29.503.048 29.504c0 9.834.049 19.669 0 29.503l-.097 29.504c-.096 9.834-.145 19.669-.29 29.503-.339-9.834-.582-19.669-.824-29.503l-.678-29.504c-.242-9.834-.388-19.669-.581-29.503l-.533-29.504-.388-29.503c-.097-9.835-.291-19.669-.339-29.504l-.242-29.503c0-9.835-.097-19.669-.049-29.504 0-.726.582-1.308 1.308-1.308.775.049 1.357.63 1.357 1.308z"/>
    <path fill="#ED6445" d="M430.425 161.165h.097l22.285-1.163c.824-.048 1.405-.726 1.357-1.55-.049-.823-.727-1.405-1.55-1.356l-22.286 1.162c-.823.049-1.404.727-1.356 1.551a1.438 1.438 0 0 0 1.453 1.356zM428.439 200.358h.049l83.472-3.295a1.49 1.49 0 0 0 1.405-1.501c-.049-.824-.727-1.454-1.502-1.405l-83.472 3.294a1.49 1.49 0 0 0-1.405 1.502c.048.775.678 1.405 1.453 1.405zM390.7 202.344h.097l22.285-1.163c.824-.048 1.405-.726 1.356-1.55-.048-.824-.726-1.405-1.55-1.356l-22.285 1.162c-.823.049-1.405.727-1.356 1.551a1.438 1.438 0 0 0 1.453 1.356zM462.497 238.678c-.049-.823-.679-1.405-1.502-1.405l-70.15 2.859a1.49 1.49 0 0 0-1.405 1.501c.049.776.679 1.405 1.454 1.405h.048l70.15-2.858c.823-.048 1.453-.727 1.405-1.502zM350.442 243.523c-.049-.824-.727-1.405-1.502-1.357l-12.838.63c-.824.049-1.405.727-1.357 1.502.049.775.679 1.405 1.454 1.405h.097l12.838-.63c.727-.048 1.356-.727 1.308-1.55zM358.387 244.686h.097l7.848-.436c.824-.049 1.405-.727 1.356-1.551-.048-.823-.726-1.405-1.55-1.356l-7.848.436c-.824.048-1.405.727-1.357 1.55a1.44 1.44 0 0 0 1.454 1.357zM380.672 285.235l-32.75 1.211a1.49 1.49 0 0 0-1.405 1.502c.049.775.679 1.405 1.454 1.405h.048l32.749-1.212a1.489 1.489 0 0 0 1.405-1.501 1.4 1.4 0 0 0-1.501-1.405zM418.847 286.93a1.489 1.489 0 0 0 1.405-1.502 1.49 1.49 0 0 0-1.502-1.405l-22.333.921a1.49 1.49 0 0 0-1.405 1.502c.048.775.678 1.405 1.453 1.405h.049l22.333-.921zM306.017 287.948l-12.838.484a1.49 1.49 0 0 0-1.405 1.502c.048.775.678 1.405 1.453 1.405h.049l12.838-.485a1.49 1.49 0 0 0 1.405-1.501 1.4 1.4 0 0 0-1.502-1.405zM323.215 287.366l-7.848.339a1.49 1.49 0 0 0-1.405 1.502c.048.775.678 1.405 1.453 1.405h.049l7.848-.339a1.49 1.49 0 0 0 1.405-1.502 1.43 1.43 0 0 0-1.502-1.405z"/>
    <path fill="#ED6445" d="M621.495 359.26c-12.887-12.305-29.165-19.911-46.557-21.898V179.914h-2.906v61.962c-.34-.049-.679 0-1.018.194l-.872.581c-4.166 2.664-8.865 5.668-11.53 9.786-3.246 5.038-3.924 11.046-1.695 15.648.581 1.259 1.404 2.325 2.131 3.391.388.533.727 1.017 1.066 1.55 1.502 2.277 2.519 4.893 3.004 7.558.242 1.405.387 2.858.484 4.36.145 1.938.291 3.924.775 5.91.872 3.488 3.294 7.558 7.461 8.478h.194v37.643a91.058 91.058 0 0 0-6.347-.242c-4.118 0-8.187.29-12.208.92.145-6.443.291-13.42.484-20.396.194-7.703.339-15.454.533-22.479.049-2.858.146-6.104-1.162-9.107-1.454-3.198-4.167-5.329-6.783-7.364-1.502-1.211-2.955-2.325-4.166-3.633-3.876-4.264-5.184-10.949-3.44-17.441 1.502-5.474 5.039-10.755 10.513-15.745.533-.484 1.114-.969 1.647-1.502 2.519-2.18 5.087-4.457 6.782-7.557 1.938-3.488 2.326-7.558 2.568-11.046.727-10.706.533-18.748-.727-27.662l14.825-18.41c.484-.629.387-1.55-.242-2.034-.63-.485-1.551-.388-2.035.242l-71.748 88.995h-.097v.145l-76.108 94.566v-35.317l151.538-187.824.048-.048c.049-.049.049-.097.097-.146 0-.048.049-.097.049-.097 0-.048.048-.097.048-.145 0-.048.048-.097.048-.145 0-.049 0-.097.049-.146v-.145V133.067v-.146c0-.048 0-.097-.049-.145 0-.049-.048-.097-.048-.145 0-.049-.048-.097-.048-.146 0-.048-.049-.048-.049-.097-.048-.048-.048-.097-.097-.145 0-.048-.048-.048-.097-.097l-.145-.145-.048-.049s-.049 0-.049-.048c-.048-.049-.097-.049-.145-.097-.049 0-.049-.048-.097-.048-.049 0-.097-.049-.145-.049-.049 0-.097-.048-.146-.048-.048 0-.097 0-.145-.049h-.242l-7.413.242c-.436 0-.823.194-1.065.533l-2.084 2.568-271.393 14.437c-.387 0-.726.194-1.017.484L130.352 329.03s-.049.048-.049.097c-.048.048-.048.096-.097.145 0 .048-.048.097-.048.097 0 .048-.048.097-.048.145 0 .049-.049.097-.049.145 0 .049-.048.097-.048.146v6.491c0 .388.145.776.436 1.066.29.243.629.388 1.017.388h.049l282.39-8.478v32.071c0 .824.629 1.453 1.453 1.453h7.509c.097 0 .194 0 .291-.048h.048c.097 0 .146-.049.194-.097.049 0 .049-.048.097-.048.048-.049.097-.049.145-.097.049 0 .049-.049.097-.097l.146-.146.048-.048 51.934-64.384v67.678c-4.554-2.034-5.087-8.042-5.717-14.388-.678-7.267-1.453-15.503-9.834-15.89-5.087-.194-11.143 7.412-12.112 20.056-1.065 14.001 2.229 25.337 5.426 36.286 2.713 9.253 5.232 17.925 5.087 27.759-.194 12.209-5.184 23.933-9.98 35.269-1.502 3.536-3.052 7.17-4.457 10.803-5.377 14.001-9.592 33.767.678 48.446 1.405 1.986 3.004 3.779 4.603 5.571 1.744 1.938 3.391 3.779 4.747 5.862 6.202 9.35 5.862 30.134 1.696 42.972-.242.775.145 1.598.921 1.841.145.048.29.048.435.048.63 0 1.163-.388 1.405-1.017 2.132-6.492 3.343-15.261 3.198-23.448-.097-6.637-1.066-15.842-5.232-22.043-1.502-2.228-3.295-4.263-4.99-6.152-1.502-1.696-3.052-3.44-4.36-5.281-9.544-13.613-5.475-32.362-.339-45.733 1.356-3.585 2.906-7.17 4.408-10.706 4.942-11.579 9.98-23.545 10.222-36.335.194-10.27-2.422-19.184-5.183-28.631-3.101-10.707-6.347-21.801-5.33-35.269.873-10.997 5.862-17.537 9.108-17.392 5.571.243 6.298 5.184 7.073 13.275.679 7.073 1.405 15.018 8.575 17.198v73.347c-6.54 3.875-11.675 10.173-14.485 17.828-2.955 8.042-3.004 16.568-.097 23.98.339.872.727 1.744 1.066 2.568 1.114 2.568 2.18 4.99 2.18 7.557 0 1.018-.145 2.084-.339 3.246-.194 1.163-.388 2.374-.388 3.634 0 3.052 1.357 6.152 3.731 8.478 2.325 2.277 5.329 3.585 8.332 3.585v57.747h2.907V294.246l21.074-26.113c-.678 7.606-.63 15.309.194 22.964.339 3.052 1.017 6.443 3.827 8.187 1.163.727 2.422.969 3.585 1.211.63.145 1.211.242 1.792.436 2.374.824 3.488 2.761 3.973 4.263 1.163 3.488.436 8.236-1.744 11.579-1.793 2.713-4.118 4.99-6.589 7.364-2.616 2.567-5.377 5.183-7.363 8.381-3.149 5.038-4.167 10.803-5.087 16.762-2.083 14.001-2.859 29.503-3.246 42.148-2.907 8.381-4.409 17.198-4.409 26.306v152.604c0 .92.775 1.695 1.696 1.695.92 0 1.695-.775 1.695-1.695V417.734c0-7.848 1.163-15.551 3.44-22.867h.388c0-.436 0-.823.048-1.259 3.73-11.385 10.174-21.849 18.942-30.618 14.679-14.679 34.106-22.769 54.744-22.769 19.96 0 38.902 7.654 53.436 21.509.678.63 1.744.63 2.374-.048.581-.727.581-1.792-.097-2.422zm-456.359-64.385c.145.049.291.097.484.097h.049l115.979-3.294a1.4 1.4 0 0 0 1.405-1.502 1.4 1.4 0 0 0-1.502-1.405l-113.848 3.246 37.304-41.421c.193.048.339.097.533.097h.048l118.983-4.506a1.49 1.49 0 0 0 1.405-1.501c0-.776-.679-1.405-1.502-1.405l-116.9 4.457 35.027-38.854c.242.146.484.194.726.194h.049l118.74-5.135a1.49 1.49 0 0 0 1.405-1.502 1.49 1.49 0 0 0-1.502-1.405l-116.899 5.087 34.59-38.418c.194.146.484.194.727.194h.048l121.405-5.135a1.49 1.49 0 0 0 1.405-1.502 1.49 1.49 0 0 0-1.502-1.405l-119.564 5.087 11.24-12.499 268.195-14.243-12.353 15.357c-.291-.291-.679-.436-1.115-.436l-80.08 3.294a1.49 1.49 0 0 0-1.405 1.502c.048.775.678 1.405 1.453 1.405h.048l79.064-3.246L414.97 319.97c-.048.049-.048.097-.096.146l-280.017 8.429 30.279-33.67zm256.278 65.015h-4.603v-36.916h4.603v36.916zm.63-39.823h-3.44l147.178-182.495c.194-.145.291-.291.388-.484l1.841-2.277 3.585-.097-149.552 185.353zm53.871 189.859c-2.228-.048-4.505-1.017-6.298-2.761-1.841-1.793-2.858-4.118-2.858-6.444 0-1.017.145-2.083.339-3.197.194-1.211.388-2.422.388-3.682 0-3.149-1.26-5.959-2.423-8.672-.339-.823-.726-1.647-1.017-2.471-2.616-6.782-2.568-14.533.145-21.945 2.374-6.444 6.492-11.821 11.773-15.406v64.578h-.049zm51.207-163.311a80.334 80.334 0 0 0-18.554 13.953 82.096 82.096 0 0 0-16.181 22.915c.484-10.513 1.308-22.818 2.907-33.816.823-5.668 1.84-11.094 4.65-15.647 1.841-2.907 4.312-5.33 6.928-7.849 2.471-2.374 5.038-4.893 7.025-7.848 2.713-4.118 3.536-9.786 2.083-14.098-1.017-3.003-3.004-5.086-5.765-6.055-.727-.243-1.454-.388-2.132-.533-.969-.194-1.938-.388-2.616-.824-1.744-1.066-2.228-3.682-2.471-6.056a117.99 117.99 0 0 1 .291-26.79l23.884-29.6v112.248h-.049zm24.417-51.837c-.194 7.025-.339 14.776-.533 22.479-.145 7.17-.339 14.34-.484 20.977a80.743 80.743 0 0 0-20.541 6.88V230.733l27.178-33.718c.92 7.654 1.017 14.921.339 24.32-.242 3.197-.581 6.879-2.229 9.883-1.405 2.616-3.73 4.602-6.152 6.734-.582.484-1.163 1.017-1.696 1.501-5.862 5.378-9.689 11.143-11.336 17.102-2.035 7.412-.485 15.115 4.069 20.153 1.357 1.502 2.955 2.762 4.506 3.973 2.47 1.938 4.747 3.73 5.91 6.298 1.114 2.325 1.066 5.232.969 7.799zm20.493 1.648c-2.616-.824-4.215-3.828-4.797-6.25-.436-1.744-.581-3.536-.726-5.474-.097-1.502-.242-3.101-.533-4.651a23.039 23.039 0 0 0-3.44-8.623c-.387-.582-.775-1.115-1.114-1.648-.727-1.017-1.405-1.986-1.889-3.003-1.405-2.907-1.744-7.8 1.501-12.79 2.326-3.633 6.783-6.443 10.658-8.914l.34-.242v51.595z"/>
    <path fill="#FED8CF" d="M414.293 326.365l-282.874 8.527a1.4 1.4 0 0 0-1.405 1.501c0 .775.678 1.405 1.453 1.405h.049l282.777-8.526v-2.907z"/>
</svg>
